<svg width="1175" height="444" viewBox="0 0 1175 444" fill="none" xmlns="http://www.w3.org/2000/svg">
<path fill-rule="evenodd" clip-rule="evenodd" d="M244.121 197.538L274.911 197.579C275.334 183.973 275.096 164.885 274.99 150.782L274.945 147.613C274.137 148.33 251.733 184.998 247.839 190.87C246.84 192.375 244.365 196.007 244.121 197.538ZM0.00244141 0.681569L0.0269252 443.966C1.50003 442.971 14.8056 424.76 17.6213 421.108L52.5923 374.802C55.6596 370.714 58.0821 367.542 61.2677 363.322L67.8675 354.548C68.8264 353.27 69.6535 353.025 69.6643 351.101C68.8006 350.63 69.3433 350.891 68.2456 350.64C67.9124 350.563 67.5642 350.554 67.2132 350.46C68.5952 349.889 166.472 350.242 182.163 350.241C195.287 350.24 206.968 350.24 219.284 348.523C248.759 344.418 278.536 331.413 300.355 314.078C303.486 311.591 319.437 298.125 320.357 295.49L312.075 298.886C296.576 305.082 279.85 307.651 263.088 308.963C258.689 309.305 250.42 309.066 245.502 308.97C243.521 308.93 242.343 308.503 240.145 308.627C237.623 312.282 233.192 316.044 226.973 316.229C221.403 316.394 214.146 314.02 208.98 313.137C202.949 312.108 197.539 311.138 193.762 307.503C190.438 304.304 187.357 298.594 188.736 291.738C189.83 286.303 193.527 281.972 197.697 279.944C203.687 277.03 209.032 278.471 215.332 279.838C228.68 282.736 238.054 281.942 242.351 295.046C273.687 296.585 297.148 292.663 323.672 278.516C328.555 275.912 334.148 271.979 338.278 268.51C340.572 266.583 342.974 264.644 344.705 262.75C346.487 260.798 351.858 249.493 353.134 246.552C354.479 243.454 355.503 240.756 356.759 237.67C359.029 232.089 361.097 225.122 362.647 218.945C373.245 176.693 368.497 133.895 349.144 95.5142C335.754 68.9588 315.676 46.352 291.308 29.7901C264.198 11.3647 231.109 0.522424 197.206 0.231338C148.316 -0.187607 98.4396 0.208215 49.3659 0.209575C33.4229 0.210935 15.5265 -0.496375 0.00380162 0.680208L0.00244141 0.681569ZM274.699 220.775C274.885 221.15 274.746 220.401 274.93 221.542C275.339 224.08 274.511 246.479 275.108 251.423L302.977 251.468C303.524 247.708 303.09 240.332 303.09 236.223C303.09 233.219 302.765 221.362 303.384 220.767C305.39 219.899 315.923 220.49 319.029 220.499L319.141 197.651C314.429 197.372 304.899 198.039 303.312 197.295C302.692 195.446 303.081 131.882 303.089 119.423C303.092 116.287 303.385 111.305 302.957 108.389L274.641 108.38L241.447 161.418C237.728 167.433 234.262 173.178 230.356 179.143L216.511 201.132C215.142 203.378 215.913 204.633 216.016 207.411C216.105 209.784 216.291 211.759 216.454 214.149L216.76 219.288C216.886 220.315 216.789 220.216 217.439 220.452C219.122 221.063 272.458 219.726 274.695 220.775H274.699ZM36.418 129.804L36.3772 152.525C38.1441 152.443 57.8359 146.016 61.1916 144.955L67.2445 143.025C67.42 142.967 68.0947 142.749 68.2932 142.726L69.784 142.89C70.3621 144.955 69.984 190.857 69.984 197.182C69.984 215.127 69.58 233.54 70.0098 251.427L98.0465 251.589C98.3866 242.376 98.0819 232.637 98.0819 223.423L98.1173 110.426C98.1186 108.545 98.2587 108.395 96.4428 108.372C94.412 108.348 79.7285 113.897 77.8542 114.636L36.4194 129.804H36.418ZM111.035 147.322C113.905 147.428 137.995 147.806 138.743 147.039C139.589 146.173 138.672 140.892 143.937 136.228C153.165 128.055 171.314 129.515 175.988 142.232C178.751 149.749 177.083 160.482 169.674 165.814C162.662 170.86 151.433 168.944 141.289 169.361L141.175 191.427C154.597 191.862 174.734 188.463 178.62 205.882C184.583 232.609 155.501 238.826 142.464 226.647C135.137 219.801 139.625 214.504 135.777 214.161C135.305 214.119 134.368 214.168 133.85 214.174C129.807 214.216 109.516 213.613 109.419 214.671C109.347 215.462 109.086 214.593 109.241 217.672C109.977 232.243 119.288 244.117 132.327 250.233C139.966 253.816 147.217 255.15 157.206 255.264C166.056 255.366 175.912 253.784 182.582 250.701C195.9 244.544 206.563 233.812 207.409 216.074C208.794 187.017 186.817 182.032 184.144 179.902C186.762 177.7 193.528 175.78 199.397 167.083C203.735 160.655 205.917 154.606 205.099 144.751C202.919 118.441 180.553 108.278 156.888 108.461C147.545 108.533 140.682 110.311 133.589 113.425C120.558 119.148 110.517 132.302 111.037 147.322H111.035Z" fill="#FAB215"/>
<path fill-rule="evenodd" clip-rule="evenodd" d="M972.77 353.455L998.108 353.415C997.646 340.945 998.152 329.046 997.451 316.707C996.8 305.207 995.774 292.259 995.786 280.853C995.909 281.013 996.072 281.068 996.12 281.356L997.767 285.163C998.276 286.778 998.61 287.915 999.199 289.589L1008.47 316.773C1010.64 322.985 1012.59 328.816 1014.66 335.091C1016.1 339.427 1019.36 350.066 1021.2 353.231L1037.91 353.484L1049.93 317.203C1052.25 310.716 1060.34 284.113 1062.78 280.717C1062.66 292.435 1061.71 304.941 1061.08 316.731C1060.42 329.135 1060.77 341.109 1060.42 353.455L1085.86 353.444L1085.78 248.749L1052.85 248.72L1029.61 320.54L1005.96 248.741L973.204 248.716C971.935 253.625 972.774 340.698 972.768 353.455H972.77Z" fill="#57585A"/>
<path fill-rule="evenodd" clip-rule="evenodd" d="M832.862 353.387L857.209 353.413L857.577 316.441L871.103 316.433L889.582 353.374L916.766 353.463C915.535 348.575 908.805 336.808 906.045 331.589C902.638 325.147 897.664 316.456 895.064 310.005C903.768 305.433 910.339 299.954 912.437 288.247C914.659 275.838 912.242 265.935 903.459 257.609C890.43 245.26 853.71 248.741 832.301 248.688C832.305 261.697 831.125 348.478 832.862 353.386V353.387ZM857.562 296.953C871.677 297.031 887.983 300.003 887.907 282.526C887.832 265.533 872.593 267.654 857.584 268.23L857.562 296.952V296.953Z" fill="#57585A"/>
<path fill-rule="evenodd" clip-rule="evenodd" d="M682.562 131.353L681.594 122.861L659.203 122.836L659.04 200.096L682.961 199.97C684.005 185.934 682.196 156.721 683.097 148.008C683.55 143.614 687.932 140.316 692.856 140.012C705.871 139.21 702.908 153.861 702.908 164.385C702.908 175.935 702.416 188.618 703.012 200.03L726.908 199.989C727.928 184.887 726.108 158.779 727.007 148.017C727.381 143.535 731.584 140.325 736.67 140.046C749.796 139.328 746.819 153.469 746.819 164.386C746.819 175.428 746.083 189.298 746.986 199.996L770.837 199.977C771.833 187.772 772.119 143.799 768.171 134.352C761.344 118.012 739.245 118.332 728.441 127.989C724.801 131.243 727.538 130.876 723.635 132.522C720.78 125.219 714.093 121.337 703.916 121.455C693.086 121.581 688.091 126.012 682.564 131.356L682.562 131.353Z" fill="#57585A"/>
<path fill-rule="evenodd" clip-rule="evenodd" d="M736.487 353.398L761.807 353.424L761.733 317.974C777.479 317.459 794.55 319.06 805.916 310.232C810.587 306.604 814.715 302.605 817.136 295.424C823.707 275.927 812.686 253.871 788.828 249.67C776.246 247.454 750.071 248.42 736.41 248.726L736.487 353.399V353.398ZM761.735 298.511C776.515 297.628 794.138 301.956 793.228 283.259C792.364 265.493 777.184 268.261 761.769 268.213L761.736 298.511H761.735Z" fill="#57585A"/>
<path fill-rule="evenodd" clip-rule="evenodd" d="M488.912 200.029L513.842 199.976C514.558 192.927 513.931 183.584 513.963 176.222C513.984 170.996 514.704 171.324 517.811 168.506C520.369 166.184 521.187 163.808 524.1 161.835L525.814 164.153C526.449 165.154 526.668 165.674 527.151 166.547L546.187 199.923L575.515 199.985C574.927 196.617 560.427 174.321 558.431 170.949C555.497 165.998 552.677 161.55 549.72 156.605C538.942 138.577 538.527 145.296 549.705 130.535C552.629 126.672 574.559 99.0602 575.582 96.0718L545.65 96.1888C543.002 98.565 539.82 103.79 537.483 107.163L514.035 141.108L513.991 96.1969L489.169 96.1765L488.913 200.026L488.912 200.029Z" fill="#57585A"/>
<path fill-rule="evenodd" clip-rule="evenodd" d="M1102.04 248.729L1101.78 353.117L1173.71 353.42L1173.96 334.21L1127.14 333.987L1127.06 308.982L1166.51 308.978L1166.72 290.288L1127.12 290.282L1127.08 268.226L1173.94 268.216L1174.05 248.779L1102.04 248.729Z" fill="#57585A"/>
<path fill-rule="evenodd" clip-rule="evenodd" d="M946.728 200.06L970.628 199.985C971.02 194.574 970.773 188.471 970.741 182.92C970.716 178.941 970.597 178.255 972.647 176.018C974.238 174.28 975.488 173.02 977.36 171.696L985.917 185.556C987.984 189.176 991.846 196.687 994.449 199.804L1021.37 199.984C1020.69 195.872 995.88 159.258 993.339 154.723C995.577 151.445 997.408 149.519 999.777 146.647C1001.16 144.976 1001.98 144.408 1003.25 142.723L1019.68 122.842L990.967 122.869L976.148 141.649C974.345 143.773 972.64 146.517 970.829 147.959L970.754 90.4053L947.11 90.3862L946.728 200.059V200.06Z" fill="#57585A"/>
<path fill-rule="evenodd" clip-rule="evenodd" d="M1092.43 188.161C1091.32 185.731 1089.41 183.837 1087.31 181.515C1086.05 180.126 1085.75 179.462 1084.67 178.162C1083.48 176.725 1082.89 176.501 1081.91 175.112C1072.4 185.582 1050.01 187.036 1047.27 168.991L1094.84 168.993C1094.86 157.843 1095.14 147.666 1090.27 138.453C1086.48 131.282 1080.12 125.031 1070.35 122.676C1051.1 118.04 1031.48 125.44 1025.03 145.209C1008.52 195.865 1065.98 218.156 1092.43 188.162V188.161ZM1047.23 153.981L1071.19 153.915C1071.62 145.169 1068.38 139.665 1059.11 140.049C1051.2 140.377 1048.22 146.257 1047.23 153.981Z" fill="#57585A"/>
<path fill-rule="evenodd" clip-rule="evenodd" d="M646.891 188.161L636.301 175.253C632.884 176.953 633.393 178.82 627.789 181.104C623.989 182.654 619.862 183.096 615.66 182.616C608.009 181.74 602.982 176.594 601.669 169.124L649.289 168.988C649.289 157.137 649.485 148.016 644.603 138.266C640.77 130.611 634.231 125.14 624.546 122.668C614.832 120.19 603.191 121.345 595.371 125.67C569.009 140.256 572.162 182.703 594.434 195.846C612.714 206.633 637.213 200.88 646.889 188.161H646.891ZM601.598 153.813L625.643 153.893C625.824 145.35 622.529 139.914 614.037 140.019C605.922 140.12 602.784 146.175 601.598 153.813Z" fill="#57585A"/>
<path fill-rule="evenodd" clip-rule="evenodd" d="M852.232 188.161C850.51 183.784 844.142 179.943 842.493 175.07C837.821 177.081 834.565 183.875 821.441 182.682C813.371 181.949 808.005 176.708 806.99 168.925L854.567 168.971C854.269 151.658 854.225 128.811 830.235 122.74C811.803 118.076 791.506 124.794 784.754 144.977C781.802 153.797 781.236 166.944 784.23 176.191C787.274 185.594 793.089 191.927 800.15 195.979C816.932 205.606 842.87 201.79 852.232 188.162V188.161ZM806.785 153.671L830.857 153.933C831.572 145.252 827.694 139.82 819.111 140.015C810.742 140.207 808.527 146.466 806.786 153.671H806.785Z" fill="#57585A"/>
<path fill-rule="evenodd" clip-rule="evenodd" d="M1150.29 192.225L1151.22 199.984L1173.59 199.991L1173.75 122.807L1149.71 122.832C1148.26 136.928 1150.54 166.6 1149.53 175.496C1149.03 179.97 1144.17 182.388 1139.3 182.754C1125.04 183.827 1128.13 169.95 1128.13 158.44C1128.13 147.469 1128.88 133.497 1128.01 122.91L1104.19 122.835C1103.36 135.537 1102.76 177.812 1106.61 187.429C1112.81 202.871 1135.01 207.496 1150.29 192.226V192.225Z" fill="#57585A"/>
<path fill-rule="evenodd" clip-rule="evenodd" d="M887.033 131.359L886.315 123.17L863.721 122.818L863.74 199.932L887.572 199.988C888.753 190.774 887.826 175.064 887.826 165.126C887.826 151.45 884.498 140.359 897.881 139.999C912.074 139.615 909.167 152.651 909.167 164.383C909.167 176.119 908.918 188.127 909.212 199.829L933.323 199.958C932.894 184.139 935.345 147.473 930.808 135.166C924.524 118.12 902.4 118.407 891.287 127.346C889.672 128.645 888.383 130.664 887.035 131.359H887.033Z" fill="#57585A"/>
<path fill-rule="evenodd" clip-rule="evenodd" d="M930.053 353.58L955.277 353.446L955.298 248.651L930.084 248.679L930.053 353.58Z" fill="#57585A"/>
</svg>
