<svg width="154" height="156" viewBox="0 0 154 156" fill="none" xmlns="http://www.w3.org/2000/svg">
<g clip-path="url(#clip0_724_20381)">
<path fill-rule="evenodd" clip-rule="evenodd" d="M107.067 155.122H83.6L83.6 133.122H60.1334V84.7216H83.6L83.6 61.2549H130.533V84.7216L154 84.7216V108.188H107.067V84.7216L83.6 84.7216L83.6 108.188H107.067V155.122ZM-57.2 108.188V84.7216L-33.7334 84.7216V61.2549H13.1999V84.7216L-10.2667 84.7216V108.188H-57.2ZM60.1333 84.7216H36.6666V61.2548H13.2V37.7881H36.6666V14.3216H60.1333V37.7881H83.6L83.6 14.3215H60.1334V-34.0785H83.6L83.6 -56.0785H107.067V-9.14519H83.6L83.6 14.3215L107.067 14.3215V-9.14514H154V14.3215L130.533 14.3215V37.7881H83.6V61.2548H60.1333V84.7216ZM-33.7334 37.7881V14.3215L-57.2 14.3215V-9.14514H-10.2667V14.3215L13.1999 14.3215V37.7881H-33.7334ZM36.6666 133.122H13.2L13.2 155.122H-10.2667V108.188H13.2L13.2 84.7216H36.6666V133.122ZM36.6666 -34.0785H13.2L13.2 -56.0785H-10.2667V-9.14519H13.2L13.2 14.3215H36.6666V-34.0785Z" fill="#1455CD"/>
</g>
<defs>
<clipPath id="clip0_724_20381">
<rect width="154" height="155.294" fill="white"/>
</clipPath>
</defs>
</svg>
