<svg width="119" height="120" viewBox="0 0 119 120" fill="none" xmlns="http://www.w3.org/2000/svg">
<g clip-path="url(#clip0_630_20381)">
<path fill-rule="evenodd" clip-rule="evenodd" d="M82.7333 119.867H64.6V102.867H46.4667V65.4667H28.3333V102.867H10.2L10.2 119.867H-7.93333V83.6H-44.2V65.4667H-26.0667V47.3334H10.2L10.2 29.2H-26.0667V11.0667H-44.2V-7.06663H-7.93333V-43.3333H10.2L10.2 -26.3333H28.3333V11.0667H46.4667V-26.3333H64.6V-43.3333H82.7333L82.7333 -7.06663H119V11.0667H100.867V29.2H64.6V47.3334L100.867 47.3334V65.4667H119V83.6H82.7333V119.867ZM64.6 65.4667L64.6 47.3334H46.4667V65.4667H64.6ZM64.6 65.4667H82.7333L82.7333 83.6H64.6V65.4667ZM64.6 11.0667H46.4667V29.2H64.6V11.0667ZM64.6 11.0667L64.6 -7.06663H82.7333V11.0667H64.6ZM10.2 11.0667L10.2 29.2H28.3333V11.0667H10.2ZM10.2 -7.06663H-7.93333V11.0667H10.2L10.2 -7.06663ZM10.2 65.4667H28.3333V47.3334L10.2 47.3334V65.4667ZM10.2 65.4667L10.2 83.6H-7.93333V65.4667H10.2Z" fill="#B75A58"/>
</g>
<defs>
<clipPath id="clip0_630_20381">
<rect width="119" height="120" fill="white"/>
</clipPath>
</defs>
</svg>
